<?xml version="1.0" standalone="no"?>
<svg id="svgContent" version="1.1" width="192" height="192" style="position: relative; width: 192px; height: 192px; margin:auto; user-select: none; cursor: default;" xmlns="http://www.w3.org/2000/svg" xmlns:xlink="http://www.w3.org/1999/xlink" viewBox="0 0 192 192">
   <g id="svgPath">
      <path d="M 87.217 1.561 C 83.865 3.909, 82 8.325, 82 13.916 C 82 18.062, 82.520 19.522, 85 22.347 L 88 25.764 88 64.882 L 88 104 90.250 103.934 C 91.487 103.897, 94.975 103.060, 98 102.074 L 103.500 100.280 103.774 83.571 L 104.049 66.862 106.774 64.505 L 109.500 62.148 111.717 64.218 C 116.078 68.288, 129.852 67.156, 131.606 62.583 C 132.093 61.316, 132.661 61.429, 135.175 63.288 C 139.425 66.431, 152.920 66.980, 157.948 64.215 C 163.519 61.151, 163.952 59.577, 160.268 55.780 L 157.084 52.500 163.292 52.808 C 168.781 53.080, 170.051 52.763, 174.252 50.078 C 178.405 47.424, 182.985 42.008, 182.996 39.737 C 182.998 39.318, 180.412 37.794, 177.250 36.350 L 171.500 33.725 174.725 32.994 C 177.721 32.315, 180.126 30.978, 184.096 27.784 C 186.434 25.903, 188.663 21.103, 189.480 16.191 L 190.196 11.881 162.848 12.191 L 135.500 12.500 130.500 15.164 C 124.496 18.362, 119.756 23.238, 114.033 32.102 C 111.688 35.734, 108.472 39.472, 106.885 40.409 L 104 42.113 104 33.939 C 104 26.282, 104.190 25.548, 107 22.347 C 109.480 19.522, 110 18.062, 110 13.916 C 110 8.325, 108.135 3.909, 104.783 1.561 C 101.749 -0.565, 90.251 -0.565, 87.217 1.561 M 2.520 16.191 C 3.337 21.103, 5.566 25.903, 7.904 27.784 C 11.874 30.978, 14.279 32.315, 17.275 32.994 L 20.500 33.725 14.750 36.350 C 11.588 37.794, 9.002 39.318, 9.004 39.737 C 9.015 42.008, 13.595 47.424, 17.748 50.078 C 21.949 52.763, 23.219 53.080, 28.708 52.808 L 34.916 52.500 31.732 55.780 C 28.048 59.577, 28.481 61.151, 34.052 64.215 C 39.080 66.980, 52.575 66.431, 56.825 63.288 C 59.339 61.429, 59.907 61.316, 60.394 62.583 C 61.339 65.047, 67.962 67.264, 72.760 66.724 C 80.839 65.813, 84 60.372, 84 47.378 C 84 42.770, 83.645 39, 83.212 39 C 82.779 39, 80.462 35.962, 78.064 32.250 C 72.244 23.238, 67.530 18.376, 61.500 15.164 L 56.500 12.500 29.152 12.191 L 1.804 11.881 2.520 16.191 M 63.391 73.432 C 59.541 75.107, 53.591 80.959, 51.358 85.266 C 50.281 87.342, 49.657 91.016, 49.615 95.528 C 49.559 101.537, 49.969 103.277, 52.444 107.528 C 55.132 112.146, 58.499 115.978, 59.903 116.016 C 61.588 116.062, 75.938 108.339, 75.967 107.371 C 75.985 106.751, 74.694 105.702, 73.099 105.041 C 71.503 104.380, 69.185 102.761, 67.947 101.444 C 65.737 99.091, 65.732 99.034, 67.686 98.274 C 73.840 95.881, 79.990 87.586, 79.996 81.673 C 80.004 73.803, 71.843 69.753, 63.391 73.432 M 115.046 74.800 C 112.867 76.979, 112 78.797, 112 81.188 C 112 87.297, 118.315 96.119, 123.750 97.603 C 124.987 97.940, 126 98.540, 126 98.934 C 126 100.192, 121.632 103.708, 117.500 105.777 C 115.300 106.878, 104.364 110.819, 93.198 114.536 C 72.302 121.490, 67.369 124.028, 62.606 130.273 C 57.393 137.107, 57.870 149.152, 63.619 155.869 C 65.564 158.141, 67.501 160, 67.922 160 C 68.344 160, 69.969 158.900, 71.534 157.556 C 73.098 156.211, 75.868 154.309, 77.689 153.328 C 81.594 151.225, 81.772 150.481, 78.750 148.872 C 73.725 146.195, 72.750 142.472, 76.250 139.326 C 78.121 137.645, 85.833 134, 87.520 134 C 87.784 134, 88 136.925, 88 140.500 C 88 148.149, 88.728 148.488, 96.581 144.504 C 99.286 143.131, 102.063 142.006, 102.750 142.004 C 103.544 142.002, 104 140.518, 104 137.933 C 104 134.218, 104.188 133.925, 106.163 134.552 C 115.179 137.413, 118.913 140.702, 117.261 144.326 C 116.280 146.480, 105.090 154, 102.865 154 C 101.618 154, 85.274 161.511, 80.277 164.381 C 76.822 166.365, 72.118 172.853, 71.414 176.605 C 69.978 184.261, 73.786 192, 78.989 192 C 82.265 192, 83.096 190.533, 81.801 187.039 C 80.500 183.529, 81.561 180.449, 84.887 178.081 L 87.769 176.028 88.175 182.410 C 88.691 190.514, 89.903 192, 96 192 C 102.112 192, 103.364 190.467, 104 182.207 L 104.500 175.714 107.845 178.847 C 111.032 181.832, 111.158 182.217, 110.501 186.990 L 109.812 192 112.834 192 C 118.219 192, 122.047 184.397, 120.586 176.605 C 120.235 174.738, 118.569 171.476, 116.882 169.355 L 113.815 165.500 116.985 164.583 C 121.140 163.381, 129.923 155.429, 131.644 151.310 C 133.111 147.800, 133.401 141.254, 132.327 135.887 C 131.893 133.714, 129.807 130.676, 126.428 127.298 C 121.606 122.476, 121.368 122.023, 123.351 121.449 C 124.533 121.107, 127.860 119.238, 130.744 117.296 C 139.675 111.282, 144.398 100.067, 142.161 90.187 C 140.055 80.886, 131.721 73.064, 123.028 72.229 C 118.554 71.799, 117.807 72.039, 115.046 74.800 M 64.625 81.798 C 64.354 82.237, 64.518 83.220, 64.990 83.983 C 65.696 85.127, 66.123 85.143, 67.413 84.072 C 68.274 83.358, 68.731 82.374, 68.430 81.887 C 67.748 80.783, 65.288 80.726, 64.625 81.798 M 123.570 81.887 C 122.661 83.357, 125.907 85.493, 127.155 84.245 C 127.744 83.656, 127.923 82.685, 127.554 82.087 C 126.744 80.777, 124.331 80.655, 123.570 81.887" stroke="none" fill="#0464fb" fill-rule="evenodd">
      </path>
   </g>
</svg>