<?xml version="1.0" standalone="no"?>
<!DOCTYPE svg PUBLIC "-//W3C//DTD SVG 20010904//EN"
 "http://www.w3.org/TR/2001/REC-SVG-20010904/DTD/svg10.dtd">
<svg version="1.0" xmlns="http://www.w3.org/2000/svg"
 width="512.000000pt" height="512.000000pt" viewBox="0 0 512.000000 512.000000"
 preserveAspectRatio="xMidYMid meet">
<metadata>
Created by potrace 1.14, written by Peter Selinger 2001-2017
</metadata>
<g transform="translate(0.000000,512.000000) scale(0.100000,-0.100000)"
fill="#000000" stroke="none">
<path d="M2459 5105 c-234 -75 -325 -357 -177 -549 18 -24 48 -54 66 -66 l32
-23 0 -1053 c0 -580 2 -1054 4 -1054 2 0 81 25 175 55 94 30 174 55 176 55 3
0 5 200 5 444 l0 444 34 21 c37 23 107 96 125 130 12 21 14 20 61 -32 58 -63
124 -102 202 -116 128 -23 265 33 344 143 l21 28 49 -37 c200 -154 525 -152
714 5 l35 29 -145 146 c-80 80 -142 145 -138 145 3 0 46 -16 96 -35 118 -46
208 -59 296 -45 127 20 225 69 309 155 53 53 113 148 103 163 -3 5 -96 46
-208 93 l-203 84 79 7 c157 14 274 66 371 163 85 85 145 221 145 328 l0 38
-662 -3 c-746 -4 -709 -1 -873 -83 -103 -52 -216 -141 -278 -220 -23 -29 -78
-113 -122 -185 -124 -204 -208 -284 -317 -304 l-38 -7 0 245 0 244 63 64 c85
84 111 149 105 263 -8 135 -75 237 -194 296 -78 39 -180 48 -255 24z"/>
<path d="M90 4733 c0 -21 7 -65 15 -97 59 -227 241 -370 500 -394 l80 -7 -203
-84 c-112 -47 -205 -88 -208 -93 -10 -15 50 -110 103 -163 84 -86 183 -136
311 -155 88 -14 176 0 294 45 50 19 93 35 96 35 4 0 -58 -66 -138 -146 l-145
-145 35 -30 c120 -103 336 -145 513 -100 88 23 135 46 202 97 l48 36 21 -28
c37 -51 79 -86 144 -116 148 -71 317 -20 399 119 42 73 53 140 53 341 l0 184
-52 58 c-29 32 -89 117 -133 190 -44 72 -99 156 -122 185 -92 117 -262 231
-413 276 -74 23 -83 23 -737 27 l-663 3 0 -38z"/>
<path d="M1792 3159 c-86 -17 -173 -69 -263 -159 -133 -131 -179 -241 -179
-430 0 -179 53 -309 181 -445 l81 -84 71 48 c81 55 174 103 261 136 l59 22
-70 37 c-86 45 -177 125 -204 178 -11 22 -19 41 -17 43 2 1 26 10 53 19 115
37 240 146 296 259 64 126 59 234 -14 314 -59 64 -142 85 -255 62z m37 -183
c53 -56 15 -146 -61 -146 -52 0 -88 35 -88 85 0 77 97 116 149 61z"/>
<path d="M3180 3161 c-116 -38 -166 -113 -158 -240 8 -143 118 -290 278 -370
45 -22 89 -41 96 -41 37 0 -6 -70 -86 -143 -105 -95 -147 -112 -895 -358 -376
-123 -446 -152 -547 -220 -315 -214 -368 -578 -123 -837 l67 -71 76 64 c43 36
112 84 154 107 43 24 78 46 78 49 0 3 -16 13 -35 22 -19 9 -55 35 -80 58 -35
32 -46 51 -56 93 -10 46 -9 58 6 90 34 71 138 135 324 200 73 26 103 32 106
23 3 -6 6 -92 7 -189 l3 -177 172 77 173 77 0 112 0 112 102 -35 c338 -118
421 -245 255 -390 -85 -75 -178 -120 -677 -330 -239 -100 -382 -210 -447 -341
-33 -67 -38 -85 -41 -168 -6 -123 12 -177 83 -253 67 -73 96 -89 130 -74 31
14 32 38 5 115 -37 106 -19 182 59 249 42 36 119 80 159 93 l22 6 0 -172 c0
-165 1 -174 25 -215 44 -75 138 -103 220 -65 89 41 105 84 105 291 0 88 3 160
6 160 22 0 138 -73 181 -115 77 -75 91 -152 42 -247 -23 -45 -24 -71 -3 -92
29 -30 56 -18 125 53 78 79 99 131 99 246 0 127 -59 249 -167 343 l-55 49 49
18 c140 52 275 136 362 225 163 165 198 407 88 614 -40 77 -162 200 -244 246
-34 19 -63 38 -63 41 0 4 21 14 48 24 145 54 322 171 404 267 92 108 149 234
163 363 8 75 -8 205 -35 281 -52 149 -199 298 -350 355 -60 23 -171 33 -210
20z m235 -186 c31 -30 33 -82 4 -119 -16 -20 -29 -26 -60 -26 -53 0 -89 35
-89 85 0 76 92 114 145 60z"/>
</g>
</svg>
