<svg width="631" height="450" viewBox="0 0 631 450" fill="none" xmlns="http://www.w3.org/2000/svg">
<path d="M426.235 116.953H423.85V51.6189C423.85 41.5902 419.867 31.9722 412.775 24.8808C405.684 17.7894 396.066 13.8054 386.037 13.8054H247.618C242.653 13.8054 237.736 14.7835 233.148 16.6838C228.56 18.584 224.392 21.3694 220.88 24.8806C217.369 28.3919 214.584 32.5605 212.683 37.1482C210.783 41.7359 209.805 46.653 209.805 51.6188V410.045C209.805 420.074 213.789 429.692 220.88 436.784C227.972 443.875 237.59 447.859 247.618 447.859H386.037C396.066 447.859 405.684 443.875 412.775 436.784C419.867 429.692 423.85 420.074 423.85 410.046V163.458H426.235V116.953Z" fill="#3F3D56"/>
<path d="M415.799 51.8812V409.783C415.8 413.49 415.07 417.162 413.652 420.587C412.233 424.013 410.154 427.125 407.533 429.747C404.911 432.37 401.799 434.45 398.374 435.869C394.949 437.288 391.278 438.019 387.57 438.019H248.475C240.987 438.02 233.805 435.045 228.51 429.751C223.214 424.456 220.239 417.274 220.239 409.786V51.8812C220.239 48.1733 220.969 44.5017 222.388 41.076C223.806 37.6503 225.886 34.5376 228.508 31.9155C231.129 29.2935 234.242 27.2136 237.667 25.7944C241.093 24.3753 244.765 23.6448 248.472 23.6446H265.355C264.524 25.6815 264.207 27.8916 264.431 30.0801C264.655 32.2687 265.414 34.3685 266.641 36.1946C267.868 38.0207 269.525 39.517 271.467 40.5516C273.408 41.5863 275.574 42.1276 277.774 42.1278H357.076C359.275 42.1261 361.441 41.5839 363.382 40.5489C365.322 39.5139 366.979 38.0177 368.206 36.192C369.432 34.3663 370.191 32.2672 370.416 30.0792C370.641 27.8912 370.325 25.6815 369.495 23.6446H387.563C391.271 23.6444 394.942 24.3745 398.368 25.7933C401.794 27.2121 404.906 29.2917 407.528 31.9135C410.15 34.5352 412.23 37.6477 413.649 41.0733C415.069 44.4988 415.799 48.1704 415.799 51.8782L415.799 51.8812Z" fill="#F4F4F4"/>
<path d="M273.927 57.809H230.779V59.7404H273.927V57.809Z" fill="#4B4B4B"/>
<path d="M339.593 57.809H296.445V59.7404H339.593V57.809Z" fill="#4B4B4B"/>
<path d="M405.26 57.809H362.111V59.7404H405.26V57.809Z" fill="#4B4B4B"/>
<path d="M385.663 289.065H245.01C244.536 289.065 244.067 288.972 243.629 288.79C243.191 288.609 242.793 288.343 242.458 288.008C242.123 287.673 241.857 287.275 241.676 286.837C241.494 286.399 241.401 285.93 241.401 285.456C241.401 284.982 241.494 284.513 241.676 284.075C241.857 283.637 242.123 283.24 242.458 282.904C242.793 282.569 243.191 282.304 243.629 282.122C244.067 281.941 244.536 281.847 245.01 281.847H385.663C386.137 281.847 386.606 281.941 387.044 282.122C387.482 282.304 387.88 282.569 388.215 282.904C388.55 283.24 388.816 283.637 388.997 284.075C389.178 284.513 389.272 284.982 389.272 285.456C389.272 285.93 389.178 286.399 388.997 286.837C388.816 287.275 388.55 287.673 388.215 288.008C387.88 288.343 387.482 288.609 387.044 288.79C386.606 288.972 386.137 289.065 385.663 289.065Z" fill="#4D4D4D"/>
<path d="M385.663 314.173H245.01C244.053 314.173 243.135 313.793 242.458 313.116C241.781 312.439 241.401 311.521 241.401 310.564C241.401 309.607 241.781 308.689 242.458 308.012C243.135 307.335 244.053 306.955 245.01 306.955H385.663C386.62 306.955 387.538 307.335 388.215 308.012C388.892 308.689 389.272 309.607 389.272 310.564C389.272 311.521 388.892 312.439 388.215 313.116C387.538 313.793 386.62 314.173 385.663 314.173Z" fill="#4D4D4D"/>
<path d="M385.663 339.281H245.01C244.053 339.281 243.135 338.9 242.458 338.224C241.781 337.547 241.401 336.629 241.401 335.672C241.401 334.715 241.781 333.797 242.458 333.12C243.135 332.443 244.053 332.063 245.01 332.063H385.663C386.62 332.063 387.538 332.443 388.215 333.12C388.892 333.797 389.272 334.715 389.272 335.672C389.272 336.629 388.892 337.547 388.215 338.224C387.538 338.9 386.62 339.281 385.663 339.281Z" fill="#4D4D4D"/>
<path d="M273.927 404.489H230.779V406.421H273.927V404.489Z" fill="#4D4D4D"/>
<path d="M339.593 404.489H296.445V406.421H339.593V404.489Z" fill="#4D4D4D"/>
<path d="M405.26 404.489H362.112V406.421H405.26V404.489Z" fill="#4D4D4D"/>
<path d="M318.019 239.628C354.141 239.628 383.424 210.345 383.424 174.223C383.424 138.101 354.141 108.819 318.019 108.819C281.897 108.819 252.615 138.101 252.615 174.223C252.615 210.345 281.897 239.628 318.019 239.628Z" fill="#50D5FF" fill-opacity="0.7"/>
<path d="M318.019 236.791C350.973 236.791 377.688 210.076 377.688 177.122C377.688 144.168 350.973 117.453 318.019 117.453C285.065 117.453 258.35 144.168 258.35 177.122C258.35 210.076 285.065 236.791 318.019 236.791Z" fill="#00A8FF"/>
<path d="M312.81 200.508C312.681 200.508 312.551 200.505 312.42 200.499C311.276 200.443 310.157 200.141 309.141 199.613C308.124 199.084 307.234 198.342 306.531 197.438L297.126 185.348C295.833 183.682 295.254 181.571 295.515 179.479C295.776 177.386 296.857 175.483 298.52 174.186L298.857 173.924C300.523 172.631 302.634 172.051 304.727 172.312C306.82 172.573 308.724 173.654 310.022 175.316C310.444 175.859 310.979 176.305 311.589 176.622C312.199 176.94 312.871 177.121 313.558 177.154C314.246 177.195 314.934 177.082 315.574 176.826C316.213 176.569 316.788 176.175 317.258 175.67L336.352 155.514C337.804 153.985 339.803 153.094 341.911 153.037C344.019 152.98 346.063 153.761 347.596 155.21L347.906 155.503C349.436 156.955 350.328 158.954 350.385 161.063C350.442 163.171 349.661 165.216 348.212 166.749L318.582 198.024C317.839 198.809 316.945 199.435 315.952 199.862C314.96 200.289 313.89 200.509 312.81 200.508Z" fill="white"/>
<path d="M213.517 82.6885H205.792V124.213H213.517V82.6885Z" fill="#3F3D56"/>
<path d="M213.517 129.041H205.792V153.183H213.517V129.041Z" fill="#3F3D56"/>
<path d="M213.517 158.012H205.792V182.154H213.517V158.012Z" fill="#3F3D56"/>
<path d="M280.149 33.4386C282.283 33.4386 284.012 31.7092 284.012 29.5759C284.012 27.4425 282.283 25.7131 280.149 25.7131C278.016 25.7131 276.287 27.4425 276.287 29.5759C276.287 31.7092 278.016 33.4386 280.149 33.4386Z" fill="white"/>
<path opacity="0.16" d="M318.019 228.525C302.923 228.523 288.389 222.798 277.347 212.505C266.305 202.211 259.575 188.115 258.514 173.056C258.417 174.445 258.351 175.843 258.351 177.256C258.351 193.081 264.637 208.258 275.827 219.448C287.017 230.638 302.194 236.925 318.019 236.925C333.844 236.925 349.021 230.638 360.211 219.448C371.402 208.258 377.688 193.081 377.688 177.256C377.688 175.843 377.621 174.445 377.524 173.056C376.464 188.115 369.734 202.211 358.692 212.505C347.649 222.798 333.115 228.523 318.019 228.525Z" fill="#231F20"/>
<path d="M402.142 225.27L449.46 227.201L455.254 195.333L414.695 182.78L402.142 225.27Z" fill="#FFB8B8"/>
<path d="M420.026 156.248L420.484 141.193L397.551 135.443L356.262 123.398C355.716 121.74 354.679 120.287 353.289 119.232C351.899 118.176 350.221 117.567 348.478 117.486C346.734 117.405 345.007 117.855 343.525 118.776C342.043 119.698 340.875 121.048 340.177 122.647C339.478 124.247 339.282 126.021 339.614 127.734C339.945 129.448 340.79 131.021 342.034 132.244C343.279 133.467 344.866 134.284 346.585 134.586C348.304 134.888 350.075 134.661 351.662 133.934L391.802 150.434L420.026 156.248Z" fill="#FFB8B8"/>
<path d="M413.421 435.105L400.298 435.104L394.055 384.487L413.422 384.488L413.421 435.105Z" fill="#FFB8B8"/>
<path d="M515.599 429.424L502.624 431.385L488.884 382.27L505.894 379.376L515.599 429.424Z" fill="#FFB8B8"/>
<path d="M451.392 217.544L406.005 209.819L404.39 213.146C395.704 231.073 390.575 250.513 389.287 270.392C388.191 287.173 387.547 304.897 387.525 323.476C387.493 352.263 388.962 378.973 391.284 403.278L416.194 403.122C415.474 377.317 416.454 351.493 419.126 325.817C421.033 307.508 423.684 290.406 426.749 274.624C432.435 297.792 440.461 320.322 450.703 341.867C459.408 360.276 477.313 381.555 486.018 399.964C494.938 398.894 503.858 397.823 512.778 396.753C505.748 378.163 493.208 351.017 486.178 332.427C476.127 305.847 471.587 287.824 461.536 261.244C462.11 256.248 462.222 251.209 461.871 246.192C461.403 237.83 459.663 227.795 454.579 221.105L451.392 217.544Z" fill="#2F2E41"/>
<path d="M458.403 203.689C460.67 207.926 455.287 216.703 451.392 217.544L406.509 203.036L429.108 137.549L440.478 139.616L458.663 142.679L465.113 148.542C466.738 150.021 467.898 151.938 468.453 154.063C469.009 156.188 468.935 158.428 468.241 160.512L458.403 203.689Z" fill="#00A8FF"/>
<path d="M427.506 178.381L414.809 170.278L398.127 187.032L366.637 216.328C364.933 215.949 363.155 216.095 361.536 216.749C359.918 217.402 358.536 218.531 357.573 219.987C356.61 221.443 356.112 223.157 356.145 224.902C356.178 226.647 356.739 228.341 357.756 229.76C358.772 231.179 360.195 232.256 361.837 232.849C363.478 233.441 365.261 233.522 366.95 233.079C368.638 232.636 370.152 231.691 371.292 230.369C372.431 229.047 373.143 227.41 373.332 225.675L408.059 199.647L427.506 178.381Z" fill="#FFB8B8"/>
<path d="M405.249 156.143L418.15 137.742L418.472 137.785C418.674 137.812 438.905 140.518 452.169 144.468C453.659 144.863 455.046 145.578 456.232 146.564C457.417 147.55 458.374 148.783 459.034 150.176C459.982 152.124 460.341 154.306 460.066 156.454C459.791 158.602 458.895 160.623 457.488 162.27C456.055 164.049 454.141 165.378 451.973 166.099C449.805 166.819 447.475 166.9 445.263 166.331L405.249 156.143Z" fill="#00A8FF"/>
<path d="M419.848 191.02L410.65 170.517L410.851 170.262C410.978 170.102 423.663 154.11 433.847 144.74C434.95 143.662 436.274 142.838 437.728 142.324C439.182 141.811 440.731 141.62 442.266 141.767C444.424 141.95 446.481 142.76 448.185 144.096C449.89 145.432 451.167 147.236 451.861 149.287C452.656 151.429 452.818 153.754 452.326 155.985C451.835 158.216 450.712 160.258 449.09 161.867L419.848 191.02Z" fill="#00A8FF"/>
<path d="M448.459 136.33C459.483 136.33 468.42 127.393 468.42 116.368C468.42 105.344 459.483 96.4066 448.459 96.4066C437.434 96.4066 428.497 105.344 428.497 116.368C428.497 127.393 437.434 136.33 448.459 136.33Z" fill="#FFB8B8"/>
<path d="M464.58 142.136L464.504 142.117L435.496 134.862C434.49 134.61 433.558 134.127 432.774 133.45C431.989 132.773 431.374 131.922 430.978 130.965C430.581 130.007 430.415 128.971 430.492 127.937C430.568 126.904 430.886 125.903 431.42 125.015L432.378 123.421C433.314 121.864 433.845 120.098 433.922 118.283C434 116.468 433.622 114.663 432.823 113.032C431.449 110.368 429.085 108.349 426.24 107.409L426.143 107.362L425.534 106.983C424.935 106.701 424.402 106.296 423.969 105.795C423.536 105.295 423.212 104.709 423.018 104.076C422.817 103.42 422.756 102.729 422.838 102.048C422.921 101.366 423.146 100.71 423.498 100.121C426.059 95.8377 429.891 92.459 434.462 90.4554C440.237 87.9694 446.741 87.774 452.654 89.9089C453.048 89.5469 453.526 89.2885 454.045 89.1567C454.563 89.0249 455.106 89.024 455.625 89.1539C470.648 92.7922 471.884 102.876 468.916 119.062L472.429 133.23C472.678 134.231 472.705 135.273 472.51 136.285C472.315 137.297 471.901 138.255 471.299 139.091C470.696 139.927 469.918 140.622 469.02 141.127C468.122 141.633 467.124 141.936 466.097 142.017L464.58 142.136ZM452.494 90.0683L452.492 90.0702L452.494 90.0683ZM452.856 89.9796L452.859 89.9806L452.856 89.9796Z" fill="#2F2E41"/>
<path d="M416.618 448.226H409.129L407.792 441.155L404.368 448.226H384.504C383.552 448.226 382.625 447.922 381.858 447.358C381.091 446.793 380.524 445.999 380.241 445.09C379.958 444.181 379.972 443.205 380.283 442.305C380.593 441.405 381.183 440.627 381.967 440.086L397.83 429.131V421.982L414.514 422.978L416.618 448.226Z" fill="#2F2E41"/>
<path d="M517.688 448.226H510.198L508.861 441.155L505.437 448.226H485.574C484.621 448.226 483.694 447.922 482.927 447.358C482.16 446.793 481.594 445.999 481.31 445.09C481.027 444.181 481.042 443.205 481.352 442.305C481.663 441.405 482.253 440.627 483.036 440.086L498.899 429.131V421.982L515.584 422.978L517.688 448.226Z" fill="#2F2E41"/>
</svg>
