<svg id="Layer_1" data-name="Layer 1" xmlns="http://www.w3.org/2000/svg" viewBox="0 0 48 48">
    <defs>
        <style>
            .cls-1{
                opacity:0.07;
                fill:none;
                stroke:#00A8FF;
                stroke-width:2px;
                stroke-linecap:round;
                stroke-linejoin:round;
            }
        </style>
    </defs>
    <circle class="cls-1" cx="8" cy="19" r="3"/>
    <path class="cls-1" d="M37.16 5H38a3.32 3.32 0 0 1 3.36 2.93l1.2 4.56a8.75 8.75 0 0 1 .13 4.51 9.74 9.74 0 0 1-9.5 7h-4.38a9.74 9.74 0 0 1-9.5-7 8.75 8.75 0 0 1 .08-4.49l1.2-4.56A3.32 3.32 0 0 1 24 5h0"/>
    <path class="cls-1" d="M37 4v2M25 4v2M8 22v10.5A11.5 11.5 0 0 0 19.5 44h0A11.5 11.5 0 0 0 31 32.5V24"/>
    <path class="cls-1" d="M-224-156h700v700h-700z"/>
</svg>
